<svg width="154" height="106" viewBox="0 0 154 106" fill="none" xmlns="http://www.w3.org/2000/svg">
<path d="M46.9586 56.7402C47.3138 57.0866 47.8866 57.0866 48.2533 56.7402L64.0989 41.3636L78.7185 55.7121C79.0737 56.0585 79.658 56.0585 80.0132 55.7121L111.567 24.9477C111.922 24.6013 111.922 24.0314 111.567 23.6849L107.03 19.2597C106.857 19.0933 106.625 19 106.382 19C106.14 19 105.907 19.0933 105.735 19.2597L79.383 44.9507L64.7863 30.6245C64.614 30.4582 64.3814 30.3648 64.139 30.3648C63.8965 30.3648 63.6639 30.4582 63.4916 30.6245L42.4329 51.041C42.2623 51.209 42.1666 51.4359 42.1666 51.6724C42.1666 51.9088 42.2623 52.1357 42.4329 52.3038L46.9586 56.7402Z" fill="#FF5B5A"/>
<path d="M11.63 105.36C9.97 105.36 8.44 105.1 7.04 104.58C5.66 104.04 4.45 103.28 3.41 102.3C2.39 101.32 1.59 100.17 1.01 98.85C0.45 97.53 0.17 96.08 0.17 94.5C0.17 92.92 0.45 91.47 1.01 90.15C1.59 88.83 2.4 87.68 3.44 86.7C4.48 85.72 5.7 84.97 7.1 84.45C8.5 83.91 10.04 83.64 11.72 83.64C13.58 83.64 15.25 83.95 16.73 84.57C18.23 85.19 19.49 86.09 20.51 87.27L17.39 90.15C16.63 89.35 15.8 88.76 14.9 88.38C14 87.98 13.02 87.78 11.96 87.78C10.94 87.78 10.01 87.94 9.17 88.26C8.33 88.58 7.6 89.04 6.98 89.64C6.38 90.24 5.91 90.95 5.57 91.77C5.25 92.59 5.09 93.5 5.09 94.5C5.09 95.48 5.25 96.38 5.57 97.2C5.91 98.02 6.38 98.74 6.98 99.36C7.6 99.96 8.32 100.42 9.14 100.74C9.98 101.06 10.9 101.22 11.9 101.22C12.86 101.22 13.79 101.07 14.69 100.77C15.61 100.45 16.5 99.92 17.36 99.18L20.12 102.69C18.98 103.55 17.65 104.21 16.13 104.67C14.63 105.13 13.13 105.36 11.63 105.36ZM15.68 102.06V94.17H20.12V102.69L15.68 102.06ZM24.3045 105V88.86H28.7745V93.42L28.1445 92.1C28.6245 90.96 29.3945 90.1 30.4545 89.52C31.5145 88.92 32.8045 88.62 34.3245 88.62V92.94C34.1245 92.92 33.9445 92.91 33.7845 92.91C33.6245 92.89 33.4545 92.88 33.2745 92.88C31.9945 92.88 30.9545 93.25 30.1545 93.99C29.3745 94.71 28.9845 95.84 28.9845 97.38V105H24.3045ZM45.9526 105V101.85L45.6526 101.16V95.52C45.6526 94.52 45.3426 93.74 44.7226 93.18C44.1226 92.62 43.1926 92.34 41.9326 92.34C41.0726 92.34 40.2226 92.48 39.3826 92.76C38.5626 93.02 37.8626 93.38 37.2826 93.84L35.6026 90.57C36.4826 89.95 37.5426 89.47 38.7826 89.13C40.0226 88.79 41.2826 88.62 42.5626 88.62C45.0226 88.62 46.9326 89.2 48.2926 90.36C49.6526 91.52 50.3326 93.33 50.3326 95.79V105H45.9526ZM41.0326 105.24C39.7726 105.24 38.6926 105.03 37.7926 104.61C36.8926 104.17 36.2026 103.58 35.7226 102.84C35.2426 102.1 35.0026 101.27 35.0026 100.35C35.0026 99.39 35.2326 98.55 35.6926 97.83C36.1726 97.11 36.9226 96.55 37.9426 96.15C38.9626 95.73 40.2926 95.52 41.9326 95.52H46.2226V98.25H42.4426C41.3426 98.25 40.5826 98.43 40.1626 98.79C39.7626 99.15 39.5626 99.6 39.5626 100.14C39.5626 100.74 39.7926 101.22 40.2526 101.58C40.7326 101.92 41.3826 102.09 42.2026 102.09C42.9826 102.09 43.6826 101.91 44.3026 101.55C44.9226 101.17 45.3726 100.62 45.6526 99.9L46.3726 102.06C46.0326 103.1 45.4126 103.89 44.5126 104.43C43.6126 104.97 42.4526 105.24 41.0326 105.24ZM64.1082 105.24C62.6882 105.24 61.4682 104.94 60.4482 104.34C59.4282 103.74 58.6482 102.83 58.1082 101.61C57.5682 100.37 57.2982 98.81 57.2982 96.93C57.2982 95.03 57.5782 93.47 58.1382 92.25C58.7182 91.03 59.5182 90.12 60.5382 89.52C61.5582 88.92 62.7482 88.62 64.1082 88.62C65.6282 88.62 66.9882 88.96 68.1882 89.64C69.4082 90.32 70.3682 91.28 71.0682 92.52C71.7882 93.76 72.1482 95.23 72.1482 96.93C72.1482 98.61 71.7882 100.07 71.0682 101.31C70.3682 102.55 69.4082 103.52 68.1882 104.22C66.9882 104.9 65.6282 105.24 64.1082 105.24ZM54.5682 105V82.74H59.2482V92.13L58.9482 96.9L59.0382 101.7V105H54.5682ZM63.2982 101.4C64.0782 101.4 64.7682 101.22 65.3682 100.86C65.9882 100.5 66.4782 99.99 66.8382 99.33C67.2182 98.65 67.4082 97.85 67.4082 96.93C67.4082 95.99 67.2182 95.19 66.8382 94.53C66.4782 93.87 65.9882 93.36 65.3682 93C64.7682 92.64 64.0782 92.46 63.2982 92.46C62.5182 92.46 61.8182 92.64 61.1982 93C60.5782 93.36 60.0882 93.87 59.7282 94.53C59.3682 95.19 59.1882 95.99 59.1882 96.93C59.1882 97.85 59.3682 98.65 59.7282 99.33C60.0882 99.99 60.5782 100.5 61.1982 100.86C61.8182 101.22 62.5182 101.4 63.2982 101.4ZM90.7072 105.36C89.1672 105.36 87.7972 105.11 86.5972 104.61C85.3972 104.11 84.4472 103.43 83.7472 102.57C83.0472 101.71 82.6972 100.72 82.6972 99.6C82.6972 98.56 82.9272 97.63 83.3872 96.81C83.8472 95.97 84.5772 95.19 85.5772 94.47C86.5772 93.73 87.8472 93.01 89.3872 92.31C90.5072 91.79 91.3872 91.33 92.0272 90.93C92.6672 90.53 93.1172 90.15 93.3772 89.79C93.6372 89.41 93.7672 89.03 93.7672 88.65C93.7672 88.13 93.5872 87.71 93.2272 87.39C92.8872 87.07 92.3772 86.91 91.6972 86.91C90.9772 86.91 90.4172 87.09 90.0172 87.45C89.6172 87.81 89.4172 88.27 89.4172 88.83C89.4172 89.13 89.4772 89.43 89.5972 89.73C89.7172 90.01 89.9472 90.34 90.2872 90.72C90.6272 91.08 91.1072 91.55 91.7272 92.13L102.797 102.39L100.247 105.36L88.0372 94.02C87.3372 93.38 86.7772 92.78 86.3572 92.22C85.9372 91.66 85.6272 91.11 85.4272 90.57C85.2472 90.03 85.1572 89.47 85.1572 88.89C85.1572 87.87 85.4272 86.97 85.9672 86.19C86.5072 85.41 87.2672 84.81 88.2472 84.39C89.2272 83.95 90.3772 83.73 91.6972 83.73C92.9172 83.73 93.9672 83.93 94.8472 84.33C95.7472 84.71 96.4472 85.26 96.9472 85.98C97.4672 86.7 97.7272 87.56 97.7272 88.56C97.7272 89.44 97.5072 90.25 97.0672 90.99C96.6272 91.71 95.9372 92.39 94.9972 93.03C94.0772 93.67 92.8672 94.32 91.3672 94.98C90.3472 95.44 89.5372 95.89 88.9372 96.33C88.3572 96.75 87.9372 97.18 87.6772 97.62C87.4172 98.06 87.2872 98.55 87.2872 99.09C87.2872 99.59 87.4372 100.04 87.7372 100.44C88.0572 100.84 88.4972 101.15 89.0572 101.37C89.6172 101.59 90.2772 101.7 91.0372 101.7C92.2572 101.7 93.3772 101.42 94.3972 100.86C95.4172 100.28 96.2772 99.43 96.9772 98.31C97.6972 97.17 98.2072 95.79 98.5072 94.17L102.257 95.34C101.837 97.38 101.087 99.15 100.007 100.65C98.9272 102.15 97.5972 103.31 96.0172 104.13C94.4372 104.95 92.6672 105.36 90.7072 105.36ZM124.569 105.36C122.909 105.36 121.379 105.1 119.979 104.58C118.599 104.04 117.389 103.28 116.349 102.3C115.329 101.32 114.529 100.17 113.949 98.85C113.389 97.53 113.109 96.08 113.109 94.5C113.109 92.92 113.389 91.47 113.949 90.15C114.529 88.83 115.339 87.68 116.379 86.7C117.419 85.72 118.639 84.97 120.039 84.45C121.439 83.91 122.979 83.64 124.659 83.64C126.519 83.64 128.189 83.95 129.669 84.57C131.169 85.19 132.429 86.09 133.449 87.27L130.329 90.15C129.569 89.35 128.739 88.76 127.839 88.38C126.939 87.98 125.959 87.78 124.899 87.78C123.879 87.78 122.949 87.94 122.109 88.26C121.269 88.58 120.539 89.04 119.919 89.64C119.319 90.24 118.849 90.95 118.509 91.77C118.189 92.59 118.029 93.5 118.029 94.5C118.029 95.48 118.189 96.38 118.509 97.2C118.849 98.02 119.319 98.74 119.919 99.36C120.539 99.96 121.259 100.42 122.079 100.74C122.919 101.06 123.839 101.22 124.839 101.22C125.799 101.22 126.729 101.07 127.629 100.77C128.549 100.45 129.439 99.92 130.299 99.18L133.059 102.69C131.919 103.55 130.589 104.21 129.069 104.67C127.569 105.13 126.069 105.36 124.569 105.36ZM128.619 102.06V94.17H133.059V102.69L128.619 102.06ZM144.924 105.24C143.204 105.24 141.674 104.88 140.334 104.16C139.014 103.44 137.964 102.46 137.184 101.22C136.424 99.96 136.044 98.53 136.044 96.93C136.044 95.31 136.424 93.88 137.184 92.64C137.964 91.38 139.014 90.4 140.334 89.7C141.674 88.98 143.204 88.62 144.924 88.62C146.624 88.62 148.144 88.98 149.484 89.7C150.824 90.4 151.874 91.37 152.634 92.61C153.394 93.85 153.774 95.29 153.774 96.93C153.774 98.53 153.394 99.96 152.634 101.22C151.874 102.46 150.824 103.44 149.484 104.16C148.144 104.88 146.624 105.24 144.924 105.24ZM144.924 101.4C145.704 101.4 146.404 101.22 147.024 100.86C147.644 100.5 148.134 99.99 148.494 99.33C148.854 98.65 149.034 97.85 149.034 96.93C149.034 95.99 148.854 95.19 148.494 94.53C148.134 93.87 147.644 93.36 147.024 93C146.404 92.64 145.704 92.46 144.924 92.46C144.144 92.46 143.444 92.64 142.824 93C142.204 93.36 141.704 93.87 141.324 94.53C140.964 95.19 140.784 95.99 140.784 96.93C140.784 97.85 140.964 98.65 141.324 99.33C141.704 99.99 142.204 100.5 142.824 100.86C143.444 101.22 144.144 101.4 144.924 101.4Z" fill="#454256"/>
</svg>
